<?xml version="1.0" encoding="UTF-8"?>
<svg width="300" height="300" viewBox="0 0 300 300" xmlns="http://www.w3.org/2000/svg">
  <style>
    .palm {
      fill: none;
      stroke: currentColor;
      stroke-width: 2;
    }
    .text {
      fill: none;
      stroke: currentColor;
      stroke-width: 2;
      font-family: sans-serif;
      font-size: 28px;
      font-weight: bold;
    }
  </style>
  
  <!-- Palm 1 -->
  <path class="palm" d="M80 180 L80 100 C80 95, 75 60, 100 70 C120 80, 110 90, 100 95 Z" />
  <path class="palm" d="M80 120 C80 120, 40 80, 60 70 C80 60, 90 80, 85 90 Z" />
  <path class="palm" d="M80 110 C80 110, 50 60, 70 50 C90 40, 95 60, 90 70 Z" />
  <path class="palm" d="M80 105 C80 105, 70 50, 85 45 C100 40, 105 65, 95 75 Z" />
  <path class="palm" d="M80 100 C80 100, 90 50, 105 55 C120 60, 110 75, 100 80 Z" />
  <path class="palm" d="M80 100 C80 100, 110 50, 125 60 C140 70, 120 85, 105 90 Z" />
  <path class="palm" d="M80 110 C80 110, 120 70, 130 80 C140 90, 115 100, 100 100 Z" />
  
  <!-- Palm 2 -->
  <path class="palm" d="M120 190 L120 110 C120 105, 115 70, 140 80 C160 90, 150 100, 140 105 Z" />
  <path class="palm" d="M120 130 C120 130, 90 100, 110 90 C130 80, 135 95, 130 105 Z" />
  <path class="palm" d="M120 120 C120 120, 100 75, 115 65 C130 55, 135 75, 130 85 Z" />
  <path class="palm" d="M120 115 C120 115, 120 60, 135 55 C150 50, 145 75, 135 85 Z" />
  <path class="palm" d="M120 110 C120 110, 140 60, 155 65 C170 70, 150 85, 140 90 Z" />
  <path class="palm" d="M120 110 C120 110, 160 70, 170 80 C180 90, 155 105, 140 110 Z" />
  
  <!-- Palm 3 -->
  <path class="palm" d="M160 180 L160 100 C160 95, 155 60, 180 70 C200 80, 190 90, 180 95 Z" />
  <path class="palm" d="M160 120 C160 120, 130 85, 145 75 C160 65, 170 85, 165 95 Z" />
  <path class="palm" d="M160 110 C160 110, 145 60, 160 50 C175 40, 175 60, 170 70 Z" />
  <path class="palm" d="M160 105 C160 105, 165 50, 180 45 C195 40, 190 65, 180 75 Z" />
  <path class="palm" d="M160 100 C160 100, 185 50, 200 55 C215 60, 195 75, 185 80 Z" />
  <path class="palm" d="M160 100 C160 100, 200 60, 210 70 C220 80, 195 90, 180 95 Z" />
  
  <!-- Palm 4 -->
  <path class="palm" d="M200 195 L200 115 C200 110, 195 75, 220 85 C240 95, 230 105, 220 110 Z" />
  <path class="palm" d="M200 135 C200 135, 170 100, 185 90 C200 80, 210 100, 205 110 Z" />
  <path class="palm" d="M200 125 C200 125, 180 75, 195 65 C210 55, 215 75, 210 85 Z" />
  <path class="palm" d="M200 120 C200 120, 205 65, 220 60 C235 55, 230 80, 220 90 Z" />
  <path class="palm" d="M200 115 C200 115, 225 65, 240 70 C255 75, 235 90, 225 95 Z" />
  <path class="palm" d="M200 115 C200 115, 240 75, 250 85 C260 95, 235 105, 220 110 Z" />
  
  <!-- Ground line -->
  <path class="palm" d="M60 200 C60 200, 100 195, 120 195 C140 195, 160 200, 180 200 C200 200, 220 195, 240 195" />
  
  <!-- Text "MADE IN PLR" -->
  <path class="text" d="M250 165 L250 165 M235 165 L275 165 M235 165 L235 200 M235 200 L275 200" />
  <path class="text" d="M235 130 L275 130 M235 130 L235 165 M255 130 L255 165 M235 165 L275 165" />
  <path class="text" d="M235 95 L275 95 M235 95 L235 130 M235 110 L255 110 M255 95 L255 130 M275 95 L275 130" />
  <path class="text" d="M235 60 L275 60 M235 60 L235 95 M255 60 L235 80 M255 60 L275 80 M275 95 L275 60" />
</svg>