<?xml version="1.0" encoding="UTF-8" standalone="no"?>
<svg width="400" height="400" viewBox="0 0 400 400" fill="none" xmlns="http://www.w3.org/2000/svg">
  <rect width="400" height="400" fill="transparent"/>
  
  <!-- Palm Trees Group -->
  <g fill="#1e7d44">
    <!-- Main Palm Tree -->
    <path d="M100 300 L120 150 L140 300 Z" />
    <path d="M50 160 C70 130, 100 120, 120 150 C140 120, 170 130, 190 160 Z" />
    <path d="M60 180 C80 150, 100 140, 120 150 C140 140, 160 150, 180 180 Z" />
    <path d="M70 200 C90 170, 100 160, 120 150 C140 160, 150 170, 170 200 Z" />
    
    <!-- Left Palm Tree -->
    <path d="M60 300 L70 200 L80 300 Z" />
    <path d="M30 210 C40 190, 60 180, 70 200 C80 180, 100 190, 110 210 Z" />
    <path d="M35 230 C45 210, 60 200, 70 200 C80 200, 95 210, 105 230 Z" />
    <path d="M40 250 C50 230, 60 220, 70 200 C80 220, 90 230, 100 250 Z" />
    
    <!-- Right Palm Tree -->
    <path d="M160 300 L170 200 L180 300 Z" />
    <path d="M130 210 C140 190, 160 180, 170 200 C180 180, 200 190, 210 210 Z" />
    <path d="M135 230 C145 210, 160 200, 170 200 C180 200, 195 210, 205 230 Z" />
    <path d="M140 250 C150 230, 160 220, 170 200 C180 220, 190 230, 200 250 Z" />
  </g>
  
  <!-- Birds (Ospreys) -->
  <g fill="#1e7d44">
    <!-- First Bird -->
    <path d="M220 100 C210 90, 200 110, 210 120 C180 140, 210 130, 210 120 C220 120, 245 110, 260 120 C270 125, 245 110, 220 100 Z" />
    <!-- Second Bird -->
    <path d="M270 130 C260 120, 250 140, 260 150 C230 170, 260 160, 260 150 C270 150, 295 140, 310 150 C320 155, 295 140, 270 130 Z" />
  </g>
  
  <!-- "MADE IN PLR" Text -->
  <g fill="#1e7d44">
    <!-- MADE -->
    <path d="M240 180 L240 210 L250 210 L250 195 L260 210 L270 210 L280 195 L280 210 L290 210 L290 180 L275 180 L265 198 L255 180 Z" />
    <path d="M300 180 L300 210 L330 210 L330 200 L310 200 L310 195 L325 195 L325 185 L310 185 L310 190 L330 190 L330 180 Z" />
    <path d="M340 180 L340 210 L365 210 L365 200 L350 200 L350 180 Z" />
    <path d="M375 180 L375 210 L400 210 L400 200 L385 200 L385 195 L395 195 L395 185 L385 185 L385 190 L400 190 L400 180 Z" />
    
    <!-- IN -->
    <path d="M240 220 L240 250 L250 250 L250 220 Z" />
    <path d="M260 220 L260 250 L270 250 L270 235 L290 250 L300 250 L300 220 L290 220 L290 235 L270 220 Z" />
    
    <!-- PLR -->
    <path d="M240 260 L240 290 L265 290 L265 280 L250 280 L250 275 L260 275 L260 265 L250 265 L250 260 Z" />
    <path d="M275 260 L275 290 L285 290 L285 260 Z" />
    <path d="M295 260 L295 290 L320 290 L320 280 L305 280 L305 275 L315 275 L315 265 L305 265 L305 260 Z" />
  </g>
</svg>