<?xml version="1.0" encoding="UTF-8" standalone="no"?>
<svg width="400" height="200" viewBox="0 0 400 200" fill="none" xmlns="http://www.w3.org/2000/svg">
  <!-- Palm Trees -->
  <g fill="#22C55E">
    <!-- Larger Palm Tree in the middle -->
    <path d="M120 180 L130 90 L140 180 Z" />
    <path d="M95 100 C95 100, 115 60, 130 90 C130 90, 145 60, 165 100 Z" />
    <path d="M85 110 C85 110, 110 75, 130 90 C130 90, 150 75, 175 110 Z" />
    <path d="M80 120 C80 120, 105 90, 130 90 C130 90, 155 90, 180 120 Z" />
    
    <!-- Smaller Palm Tree on the left -->
    <path d="M60 180 L70 120 L80 180 Z" />
    <path d="M45 130 C45 130, 60 105, 70 120 C70 120, 80 105, 95 130 Z" />
    <path d="M40 140 C40 140, 55 115, 70 120 C70 120, 85 115, 100 140 Z" />
    <path d="M35 150 C35 150, 50 125, 70 120 C70 120, 90 125, 105 150 Z" />
    
    <!-- Smaller Palm Tree on the right -->
    <path d="M180 180 L190 120 L200 180 Z" />
    <path d="M165 130 C165 130, 180 105, 190 120 C190 120, 200 105, 215 130 Z" />
    <path d="M160 140 C160 140, 175 115, 190 120 C190 120, 205 115, 220 140 Z" />
    <path d="M155 150 C155 150, 170 125, 190 120 C190 120, 210 125, 225 150 Z" />
  </g>

  <!-- Ospreys -->
  <g fill="#22C55E">
    <!-- First Osprey -->
    <path d="M260 60 C255 55, 250 65, 255 70 C240 80, 255 75, 255 70 C255 70, 270 65, 285 70 C300 75, 270 65, 260 60 Z" />
    <path d="M255 70 C255 70, 260 75, 255 80 C250 85, 245 80, 255 70 Z" />
    <!-- Second Osprey -->
    <path d="M290 80 C285 75, 280 85, 285 90 C270 100, 285 95, 285 90 C285 90, 300 85, 315 90 C330 95, 300 85, 290 80 Z" />
    <path d="M285 90 C285 90, 290 95, 285 100 C280 105, 275 100, 285 90 Z" />
  </g>

  <!-- "MADE IN PLR" Text -->
  <g fill="#1e7d44">
    <path d="M260 120 L260 140 L265 140 L265 130 L270 140 L275 140 L280 130 L280 140 L285 140 L285 120 L278 120 L272.5 132 L267 120 Z" /> <!-- M -->
    <path d="M290 120 L290 140 L305 140 L305 135 L295 135 L295 132 L303 132 L303 127 L295 127 L295 125 L305 125 L305 120 Z" /> <!-- A -->
    <path d="M310 120 L310 140 L322 140 L322 135 L315 135 L315 120 Z" /> <!-- D -->
    <path d="M327 120 L327 140 L342 140 L342 135 L332 135 L332 120 Z" /> <!-- E -->
    
    <path d="M260 150 L260 170 L265 170 L265 150 Z" /> <!-- I -->
    <path d="M270 150 L270 170 L285 170 L285 165 L275 165 L275 150 Z" /> <!-- N -->
    
    <path d="M290 150 L290 170 L300 170 L300 165 L295 165 L295 150 Z" /> <!-- P -->
    <path d="M305 150 L305 170 L315 170 L315 150 Z" /> <!-- L -->
    <path d="M320 150 L320 170 L335 170 L335 165 L325 165 L325 160 L333 160 L333 155 L325 155 L325 150 Z" /> <!-- R -->
  </g>
</svg>