<?xml version="1.0" encoding="UTF-8"?>
<svg width="160" height="160" viewBox="0 0 160 160" fill="none" xmlns="http://www.w3.org/2000/svg">
  <!-- Body -->
  <path d="M80 100C90 100 100 90 100 80C100 70 95 60 80 55C65 60 60 70 60 80C60 90 70 100 80 100Z" fill="#4A4A4A"/>
  
  <!-- Head -->
  <path d="M80 55C85 55 90 50 90 45C90 40 85 35 80 35C75 35 70 40 70 45C70 50 75 55 80 55Z" fill="#4A4A4A"/>
  
  <!-- Beak -->
  <path d="M80 45L90 40L85 45L90 48Z" fill="#E6B800"/>
  
  <!-- Eye -->
  <circle cx="83" cy="43" r="2" fill="white"/>
  <circle cx="83" cy="43" r="1" fill="black"/>
  
  <!-- Wings (spread) -->
  <path d="M80 80L50 40C50 40 55 45 60 50C65 55 70 58 75 60L80 80Z" fill="#6A6A6A"/>
  <path d="M80 80L110 40C110 40 105 45 100 50C95 55 90 58 85 60L80 80Z" fill="#6A6A6A"/>
  
  <!-- Tail feathers -->
  <path d="M75 95L60 120C60 120 65 115 70 110C75 105 75 95 75 95Z" fill="#6A6A6A"/>
  <path d="M80 95L80 125C80 125 80 115 80 110C80 105 80 95 80 95Z" fill="#6A6A6A"/>
  <path d="M85 95L100 120C100 120 95 115 90 110C85 105 85 95 85 95Z" fill="#6A6A6A"/>
  
  <!-- Legs -->
  <path d="M75 100L70 120L75 120" stroke="#E6B800" stroke-width="2"/>
  <path d="M85 100L90 120L85 120" stroke="#E6B800" stroke-width="2"/>
  
  <!-- Feet -->
  <path d="M70 120L65 125M70 120L70 125M70 120L75 125" stroke="#E6B800" stroke-width="2"/>
  <path d="M90 120L95 125M90 120L90 125M90 120L85 125" stroke="#E6B800" stroke-width="2"/>
</svg>