<?xml version="1.0" encoding="UTF-8"?>
<svg width="400" height="400" viewBox="0 0 400 400" xmlns="http://www.w3.org/2000/svg">
  <style>
    .palmGroup { stroke: currentColor; stroke-width: 2; fill: none; }
    .textGroup { stroke: currentColor; stroke-width: 2; fill: none; }
  </style>
  
  <g class="palmGroup">
    <!-- First Palm -->
    <path d="M100 280 L100 180 C90 150, 90 120, 120 140 C140 160, 110 170, 100 180" />
    <path d="M100 180 C80 170, 60 130, 80 120 C100 110, 110 150, 100 180" />
    <path d="M100 180 C80 160, 50 130, 70 110 C90 90, 110 130, 100 180" />
    <path d="M100 180 C90 150, 70 100, 90 90 C110 80, 120 140, 100 180" />
    <path d="M100 180 C100 150, 110 100, 130 100 C150 110, 120 160, 100 180" />
    <path d="M100 180 C110 150, 140 110, 160 120 C180 130, 130 170, 100 180" />
    <path d="M100 180 C120 170, 140 150, 150 165 C160 180, 120 190, 100 180" />
    
    <!-- Second Palm -->
    <path d="M160 300 L160 200 C150 170, 150 140, 180 160 C200 180, 170 190, 160 200" />
    <path d="M160 200 C140 190, 120 150, 140 140 C160 130, 170 170, 160 200" />
    <path d="M160 200 C140 180, 110 150, 130 130 C150 110, 170 150, 160 200" />
    <path d="M160 200 C150 170, 130 120, 150 110 C170 100, 180 160, 160 200" />
    <path d="M160 200 C160 170, 170 120, 190 120 C210 130, 180 180, 160 200" />
    <path d="M160 200 C170 170, 200 130, 220 140 C240 150, 190 190, 160 200" />
    <path d="M160 200 C180 190, 200 170, 210 185 C220 200, 180 210, 160 200" />
    
    <!-- Third Palm -->
    <path d="M220 290 L220 190 C210 160, 210 130, 240 150 C260 170, 230 180, 220 190" />
    <path d="M220 190 C200 180, 180 140, 200 130 C220 120, 230 160, 220 190" />
    <path d="M220 190 C200 170, 170 140, 190 120 C210 100, 230 140, 220 190" />
    <path d="M220 190 C210 160, 190 110, 210 100 C230 90, 240 150, 220 190" />
    <path d="M220 190 C220 160, 230 110, 250 110 C270 120, 240 170, 220 190" />
    <path d="M220 190 C230 160, 260 120, 280 130 C300 140, 250 180, 220 190" />
    <path d="M220 190 C240 180, 260 160, 270 175 C280 190, 240 200, 220 190" />
    
    <!-- Fourth Palm -->
    <path d="M280 280 L280 180 C270 150, 270 120, 300 140 C320 160, 290 170, 280 180" />
    <path d="M280 180 C260 170, 240 130, 260 120 C280 110, 290 150, 280 180" />
    <path d="M280 180 C260 160, 230 130, 250 110 C270 90, 290 130, 280 180" />
    <path d="M280 180 C270 150, 250 100, 270 90 C290 80, 300 140, 280 180" />
    <path d="M280 180 C280 150, 290 100, 310 100 C330 110, 300 160, 280 180" />
    <path d="M280 180 C290 150, 320 110, 340 120 C360 130, 310 170, 280 180" />
    <path d="M280 180 C300 170, 320 150, 330 165 C340 180, 300 190, 280 180" />
    
    <!-- Ground -->
    <path d="M70 300 C100 290, 150 280, 200 280 C250 280, 300 290, 330 300" />
  </g>
  
  <g class="textGroup" transform="translate(270, 280)">
    <!-- MADE IN PLR text -->
    <path d="M0 0 L40 0 M0 0 L0 -40 M20 0 L20 -40 M40 0 L40 -40" />
    <path d="M0 -50 L40 -50 M0 -50 L0 -90 M0 -70 L25 -70 M40 -50 L40 -90" />
    <path d="M0 -100 L40 -100 M0 -100 L0 -140 M20 -100 L0 -120 M20 -100 L40 -120" />
  </g>
</svg>