<?xml version="1.0" encoding="UTF-8"?>
<svg width="160" height="240" viewBox="0 0 160 240" fill="none" xmlns="http://www.w3.org/2000/svg">
  <!-- Trunk -->
  <path d="M75 240V80C75 80 70 70 70 60C70 50 75 40 75 40C75 40 75 30 80 30C85 30 85 40 85 40C85 40 90 50 90 60C90 70 85 80 85 80V240" fill="#8B4513"/>
  
  <!-- Palm fronds -->
  <path d="M80 50C80 50 60 30 40 35C20 40 10 55 10 55C10 55 35 45 50 50C65 55 80 50 80 50Z" fill="#2E8B57"/>
  <path d="M80 45C80 45 60 15 50 10C40 5 20 5 20 5C20 5 40 25 50 30C60 35 80 45 80 45Z" fill="#2E8B57"/>
  <path d="M80 40C80 40 70 10 65 5C60 0 45 0 45 0C45 0 60 15 65 20C70 25 80 40 80 40Z" fill="#2E8B57"/>
  
  <path d="M80 50C80 50 100 30 120 35C140 40 150 55 150 55C150 55 125 45 110 50C95 55 80 50 80 50Z" fill="#2E8B57"/>
  <path d="M80 45C80 45 100 15 110 10C120 5 140 5 140 5C140 5 120 25 110 30C100 35 80 45 80 45Z" fill="#2E8B57"/>
  <path d="M80 40C80 40 90 10 95 5C100 0 115 0 115 0C115 0 100 15 95 20C90 25 80 40 80 40Z" fill="#2E8B57"/>
  
  <!-- Drooping fronds -->
  <path d="M80 60C80 60 50 70 30 90C10 110 5 130 5 130C5 130 30 105 50 95C70 85 80 60 80 60Z" fill="#3A9D6E"/>
  <path d="M80 60C80 60 110 70 130 90C150 110 155 130 155 130C155 130 130 105 110 95C90 85 80 60 80 60Z" fill="#3A9D6E"/>
</svg>